<svg id="Page_1" data-name="Page 1" xmlns="http://www.w3.org/2000/svg" width="27.69" height="27.376" viewBox="0 0 27.69 27.376">
  <defs>
    <style>
      .cls-1 {
        fill: #007397;
        fill-rule: evenodd;
      }
    </style>
  </defs>
  <path id="Fill_1" data-name="Fill 1" class="cls-1" d="M3011.85,416.505a12.5,12.5,0,1,0,12.63,12.5,12.573,12.573,0,0,0-12.63-12.5m0,26.194A13.7,13.7,0,1,1,3025.7,429a13.789,13.789,0,0,1-13.85,13.7" transform="translate(-2998 -415.312)"/>
  <path id="Fill_3" data-name="Fill 3" class="cls-1" d="M3011.85,416.505c-3.89,0-7.05,5.605-7.05,12.5s3.16,12.494,7.05,12.494,7.05-5.6,7.05-12.494-3.17-12.5-7.05-12.5m0,26.194c-4.56,0-8.27-6.146-8.27-13.7s3.71-13.7,8.27-13.7,8.26,6.145,8.26,13.7-3.7,13.7-8.26,13.7" transform="translate(-2998 -415.312)"/>
  <path id="Fill_5" data-name="Fill 5" class="cls-1" d="M3012.46,416.519v24.962a12.49,12.49,0,0,0,0-24.962m-0.61,26.179a0.6,0.6,0,0,1-.61-0.6V415.9a0.6,0.6,0,0,1,.61-0.6,13.7,13.7,0,1,1,0,27.4" transform="translate(-2998 -415.312)"/>
  <path id="Fill_8" data-name="Fill 8" class="cls-1" d="M2999.9,433.014h23.9a12.19,12.19,0,0,0,0-8.029h-23.9a12.19,12.19,0,0,0,0,8.029m24.32,1.2h-24.75a0.613,0.613,0,0,1-.57-0.39,13.408,13.408,0,0,1,0-9.659,0.612,0.612,0,0,1,.57-0.388h24.75a0.6,0.6,0,0,1,.57.388,13.273,13.273,0,0,1,0,9.66,0.6,0.6,0,0,1-.57.389" transform="translate(-2998 -415.312)"/>
</svg>
