<svg xmlns="http://www.w3.org/2000/svg" width="172" height="20" viewBox="0 0 172 20">
  <defs>
    <style>
      .cls-1 {
        fill: #007397;
        fill-rule: evenodd;
      }
    </style>
  </defs>
  <path id="BUSINESS" class="cls-1" d="M1498.77,62a11.936,11.936,0,0,1,4.05.627,5.937,5.937,0,0,1,2.67,1.769,4.088,4.088,0,0,1,.93,2.66,4.27,4.27,0,0,1-.88,2.646,4.505,4.505,0,0,1-2.37,1.629,4.72,4.72,0,0,1,2.78,1.783,5.247,5.247,0,0,1,1.05,3.273,4.759,4.759,0,0,1-.97,2.967,6.049,6.049,0,0,1-2.71,1.964,11.179,11.179,0,0,1-4.08.682H1489V62h9.77ZM1496,70h2.71a1.484,1.484,0,0,0,.94-0.279,0.91,0.91,0,0,0,.35-0.74,0.863,0.863,0,0,0-.35-0.711,1.522,1.522,0,0,0-.94-0.27H1496v2Zm-2,7h3.67a2.9,2.9,0,0,0,1.69-.438,1.319,1.319,0,0,0,.64-1.137,1.167,1.167,0,0,0-.64-1.034,3.249,3.249,0,0,0-1.69-.391H1494v3Zm37-3.626a8.768,8.768,0,0,1-1.16,4.54,7.74,7.74,0,0,1-3.29,3.022A11.009,11.009,0,0,1,1521.57,82a11.318,11.318,0,0,1-5.03-1.064,7.9,7.9,0,0,1-3.35-3.022,8.6,8.6,0,0,1-1.19-4.54V62h6.55V73.374a3.147,3.147,0,0,0,.89,2.3,2.914,2.914,0,0,0,2.16.9,2.651,2.651,0,0,0,2.04-.872,3.286,3.286,0,0,0,.81-2.328V62H1531V73.374ZM1546.57,62a16.871,16.871,0,0,1,4.52.626,14.409,14.409,0,0,1,3.91,1.687l-2.32,4.9a24.635,24.635,0,0,0-3.56-1.592,9.7,9.7,0,0,0-3.11-.694c-0.79,0-1.18.272-1.18,0.816a1.071,1.071,0,0,0,.74.959,15.306,15.306,0,0,0,2.37.769,26.093,26.093,0,0,1,3.48,1.143,6.4,6.4,0,0,1,2.4,1.823,4.987,4.987,0,0,1,1.03,3.306,5.558,5.558,0,0,1-1.08,3.5,6.451,6.451,0,0,1-2.95,2.082,11.866,11.866,0,0,1-4.12.68,17.233,17.233,0,0,1-5.17-.816,14.327,14.327,0,0,1-4.53-2.3l2.39-4.844a13.892,13.892,0,0,0,3.68,2.129,10.147,10.147,0,0,0,3.69.9c1.03,0,1.55-.336,1.55-1.007a1.09,1.09,0,0,0-.77-0.986,15.267,15.267,0,0,0-2.44-.769,25.447,25.447,0,0,1-3.43-1.061,6.075,6.075,0,0,1-2.38-1.742,4.715,4.715,0,0,1-1.01-3.156A5.64,5.64,0,0,1,1539.3,65a6.539,6.539,0,0,1,2.9-2.218A11.33,11.33,0,0,1,1546.57,62ZM1560,82V62h7V82h-7Zm26.59,0-7.69-10.209V82H1573V62h5.42l7.72,10.279V62H1592V82h-5.41Zm18.97-14.972v2.451h9.25v5.014h-9.25v2.493H1616V82h-17V62h16.75v5.028h-10.19ZM1629.57,62a16.871,16.871,0,0,1,4.52.626,14.409,14.409,0,0,1,3.91,1.687l-2.32,4.9a24.635,24.635,0,0,0-3.56-1.592,9.7,9.7,0,0,0-3.11-.694c-0.79,0-1.18.272-1.18,0.816a1.071,1.071,0,0,0,.74.959,15.306,15.306,0,0,0,2.37.769,26.093,26.093,0,0,1,3.48,1.143,6.4,6.4,0,0,1,2.4,1.823,4.987,4.987,0,0,1,1.03,3.306,5.558,5.558,0,0,1-1.08,3.5,6.451,6.451,0,0,1-2.95,2.082,11.866,11.866,0,0,1-4.12.68,17.233,17.233,0,0,1-5.17-.816,14.327,14.327,0,0,1-4.53-2.3l2.39-4.844a13.892,13.892,0,0,0,3.68,2.129,10.147,10.147,0,0,0,3.69.9c1.03,0,1.55-.336,1.55-1.007a1.09,1.09,0,0,0-.77-0.986,15.267,15.267,0,0,0-2.44-.769,25.447,25.447,0,0,1-3.43-1.061,6.075,6.075,0,0,1-2.38-1.742,4.715,4.715,0,0,1-1.01-3.156A5.64,5.64,0,0,1,1622.3,65a6.539,6.539,0,0,1,2.9-2.218A11.33,11.33,0,0,1,1629.57,62Zm23,0a16.871,16.871,0,0,1,4.52.626,14.409,14.409,0,0,1,3.91,1.687l-2.32,4.9a24.635,24.635,0,0,0-3.56-1.592,9.649,9.649,0,0,0-3.11-.694c-0.79,0-1.18.272-1.18,0.816a1.071,1.071,0,0,0,.74.959,15.306,15.306,0,0,0,2.37.769,26.093,26.093,0,0,1,3.48,1.143,6.4,6.4,0,0,1,2.4,1.823,4.987,4.987,0,0,1,1.03,3.306,5.558,5.558,0,0,1-1.08,3.5,6.451,6.451,0,0,1-2.95,2.082,11.866,11.866,0,0,1-4.12.68,17.233,17.233,0,0,1-5.17-.816,14.327,14.327,0,0,1-4.53-2.3l2.39-4.844a13.892,13.892,0,0,0,3.68,2.129,10.147,10.147,0,0,0,3.69.9c1.03,0,1.55-.336,1.55-1.007a1.09,1.09,0,0,0-.77-0.986,15.267,15.267,0,0,0-2.44-.769,25.447,25.447,0,0,1-3.43-1.061,6.075,6.075,0,0,1-2.38-1.742,4.715,4.715,0,0,1-1.01-3.156A5.64,5.64,0,0,1,1645.3,65a6.539,6.539,0,0,1,2.9-2.218A11.33,11.33,0,0,1,1652.57,62Z" transform="translate(-1489 -62)"/>
</svg>
